<svg viewBox="0 0 1860 970" xmlns="http://www.w3.org/2000/svg" font-family="'IBM Plex Sans', ui-sans-serif, system-ui, -apple-system, 'Segoe UI', Arial, sans-serif">

<defs>
  <marker id="arrowHead" viewBox="0 0 10 10" refX="8" refY="5" markerWidth="7" markerHeight="7" orient="auto-start-reverse">
    <path d="M0,0 L10,5 L0,10 Z" fill="#8B93A3"/>
  </marker>
  <marker id="arrowSmall" viewBox="0 0 10 10" refX="7" refY="5" markerWidth="5" markerHeight="5" orient="auto-start-reverse">
    <path d="M0,0 L10,5 L0,10 Z" fill="#5B6472"/>
  </marker>
</defs>

<rect x="0" y="0" width="1860" height="970" fill="#F6F5F2"/>
<text x="930.0" y="52" text-anchor="middle" font-family="'IBM Plex Sans', ui-sans-serif, system-ui, -apple-system, 'Segoe UI', Arial, sans-serif" font-size="34" font-weight="700" fill="#1B2333">ISIC ML Data Platform Architecture</text>
<text x="930.0" y="80" text-anchor="middle" font-family="'IBM Plex Sans', ui-sans-serif, system-ui, -apple-system, 'Segoe UI', Arial, sans-serif" font-size="14" fill="#5B6472">Bronze / Silver / Gold medallion pipeline on Databricks Unity Catalog</text>
<rect x="40" y="118" width="220" height="610" rx="18" fill="rgba(62,76,107,0.07)" stroke="rgba(62,76,107,0.28)" stroke-width="1.5"/>
<rect x="40" y="118" width="220" height="52" rx="14" fill="#3E4C6B"/><rect x="40" y="144" width="220" height="26" fill="#3E4C6B"/><text x="150.0" y="151" text-anchor="middle" font-family="'IBM Plex Sans', ui-sans-serif, system-ui, -apple-system, 'Segoe UI', Arial, sans-serif" font-size="19" font-weight="600" fill="#FFFFFF">Source Datasets</text>
<rect x="56" y="326.0" width="188" height="118" rx="10" fill="#FFFFFF" stroke="#E4E1D9" stroke-width="1"/>
<g transform="translate(138.0,340.0) scale(1.0)" fill="none" stroke="#3E4C6B" stroke-width="1.8" stroke-linecap="round" stroke-linejoin="round"><rect x="2" y="4" width="20" height="16" rx="2"/><circle cx="9" cy="10" r="1.8"/><path d="M4 17 L9 12 L13 16 L16 13 L20 17"/></g>
<text x="150.0" y="386.0" text-anchor="middle" font-family="'IBM Plex Sans', ui-sans-serif, system-ui, -apple-system, 'Segoe UI', Arial, sans-serif" font-size="16.5" font-weight="600" fill="#1B2333">Images</text>
<text x="150.0" y="406.0" text-anchor="middle" font-family="'IBM Plex Sans', ui-sans-serif, system-ui, -apple-system, 'Segoe UI', Arial, sans-serif" font-size="12.5" fill="#5B6472">Source image files</text>
<rect x="56" y="462.0" width="188" height="118" rx="10" fill="#FFFFFF" stroke="#E4E1D9" stroke-width="1"/>
<g transform="translate(138.0,476.0) scale(1.0)" fill="none" stroke="#3E4C6B" stroke-width="1.8" stroke-linecap="round" stroke-linejoin="round"><rect x="5" y="2" width="14" height="20" rx="2"/><path d="M8 8 H16 M8 12 H16 M8 16 H13"/></g>
<text x="150.0" y="522.0" text-anchor="middle" font-family="'IBM Plex Sans', ui-sans-serif, system-ui, -apple-system, 'Segoe UI', Arial, sans-serif" font-size="16.5" font-weight="600" fill="#1B2333">Metadata</text>
<text x="150.0" y="542.0" text-anchor="middle" font-family="'IBM Plex Sans', ui-sans-serif, system-ui, -apple-system, 'Segoe UI', Arial, sans-serif" font-size="12.5" fill="#5B6472">Includes labels and</text>
<text x="150.0" y="558.0" text-anchor="middle" font-family="'IBM Plex Sans', ui-sans-serif, system-ui, -apple-system, 'Segoe UI', Arial, sans-serif" font-size="12.5" fill="#5B6472">attributes</text>
<rect x="350" y="118" width="300" height="610" rx="18" fill="rgba(169,104,59,0.07)" stroke="rgba(169,104,59,0.28)" stroke-width="1.5"/>
<rect x="350" y="118" width="300" height="52" rx="14" fill="#A9683B"/><rect x="350" y="144" width="300" height="26" fill="#A9683B"/><text x="500.0" y="151" text-anchor="middle" font-family="'IBM Plex Sans', ui-sans-serif, system-ui, -apple-system, 'Segoe UI', Arial, sans-serif" font-size="19" font-weight="600" fill="#FFFFFF">Unity Catalog · Bronze</text>
<rect x="366" y="235.0" width="268" height="118" rx="10" fill="#FFFFFF" stroke="#E4E1D9" stroke-width="1"/>
<g transform="translate(488.0,249.0) scale(1.0)" fill="none" stroke="#A9683B" stroke-width="1.8" stroke-linecap="round" stroke-linejoin="round"><rect x="3" y="4" width="18" height="16" rx="2"/><path d="M3 10 H21 M10 10 V20 M16 10 V20"/></g>
<text x="500.0" y="295.0" text-anchor="middle" font-family="'IBM Plex Mono', ui-monospace, 'SFMono-Regular', Consolas, 'Liberation Mono', monospace" font-size="15.5" font-weight="600" fill="#1B2333">image_blobs</text>
<text x="500.0" y="315.0" text-anchor="middle" font-family="'IBM Plex Sans', ui-sans-serif, system-ui, -apple-system, 'Segoe UI', Arial, sans-serif" font-size="12.5" fill="#5B6472">Delta table — binary image bytes,</text>
<text x="500.0" y="331.0" text-anchor="middle" font-family="'IBM Plex Sans', ui-sans-serif, system-ui, -apple-system, 'Segoe UI', Arial, sans-serif" font-size="12.5" fill="#5B6472">one row per image</text>
<rect x="366" y="371.0" width="268" height="118" rx="10" fill="#FFFFFF" stroke="#E4E1D9" stroke-width="1"/>
<g transform="translate(488.0,385.0) scale(1.0)" fill="none" stroke="#A9683B" stroke-width="1.8" stroke-linecap="round" stroke-linejoin="round"><rect x="3" y="4" width="18" height="16" rx="2"/><path d="M3 10 H21 M10 10 V20 M16 10 V20"/></g>
<text x="500.0" y="431.0" text-anchor="middle" font-family="'IBM Plex Mono', ui-monospace, 'SFMono-Regular', Consolas, 'Liberation Mono', monospace" font-size="15.5" font-weight="600" fill="#1B2333">source_metadata</text>
<text x="500.0" y="451.0" text-anchor="middle" font-family="'IBM Plex Sans', ui-sans-serif, system-ui, -apple-system, 'Segoe UI', Arial, sans-serif" font-size="12.5" fill="#5B6472">Raw metadata, incl. labels &amp;</text>
<text x="500.0" y="467.0" text-anchor="middle" font-family="'IBM Plex Sans', ui-sans-serif, system-ui, -apple-system, 'Segoe UI', Arial, sans-serif" font-size="12.5" fill="#5B6472">attributes</text>
<rect x="366" y="507.0" width="268" height="118" rx="10" fill="#FFFFFF" stroke="#E4E1D9" stroke-width="1"/>
<g transform="translate(488.0,521.0) scale(1.0)" fill="none" stroke="#A9683B" stroke-width="1.8" stroke-linecap="round" stroke-linejoin="round"><rect x="4" y="5" width="16" height="17" rx="2"/><rect x="8.5" y="2.5" width="7" height="4" rx="1"/><path d="M8 14 L10.8 17 L16 10.5"/></g>
<text x="500.0" y="567.0" text-anchor="middle" font-family="'IBM Plex Mono', ui-monospace, 'SFMono-Regular', Consolas, 'Liberation Mono', monospace" font-size="15.5" font-weight="600" fill="#1B2333">ingestion_runs</text>
<text x="500.0" y="587.0" text-anchor="middle" font-family="'IBM Plex Sans', ui-sans-serif, system-ui, -apple-system, 'Segoe UI', Arial, sans-serif" font-size="12.5" fill="#5B6472">Run log and checksums</text>
<text x="500.0" y="706" text-anchor="middle" font-family="'IBM Plex Sans', ui-sans-serif, system-ui, -apple-system, 'Segoe UI', Arial, sans-serif" font-size="12.5" font-weight="600" letter-spacing="0.2" fill="#A9683B">Immutable raw data · preserve source faithfully</text>
<rect x="740" y="118" width="300" height="610" rx="18" fill="rgba(91,113,134,0.07)" stroke="rgba(91,113,134,0.28)" stroke-width="1.5"/>
<rect x="740" y="118" width="300" height="52" rx="14" fill="#5B7186"/><rect x="740" y="144" width="300" height="26" fill="#5B7186"/><text x="890.0" y="151" text-anchor="middle" font-family="'IBM Plex Sans', ui-sans-serif, system-ui, -apple-system, 'Segoe UI', Arial, sans-serif" font-size="19" font-weight="600" fill="#FFFFFF">Unity Catalog · Silver</text>
<rect x="756" y="235.0" width="268" height="118" rx="10" fill="#FFFFFF" stroke="#E4E1D9" stroke-width="1"/>
<g transform="translate(878.0,249.0) scale(1.0)" fill="none" stroke="#5B7186" stroke-width="1.8" stroke-linecap="round" stroke-linejoin="round"><rect x="3" y="4" width="18" height="16" rx="2"/><path d="M3 10 H21 M10 10 V20 M16 10 V20"/></g>
<text x="890.0" y="295.0" text-anchor="middle" font-family="'IBM Plex Mono', ui-monospace, 'SFMono-Regular', Consolas, 'Liberation Mono', monospace" font-size="15.5" font-weight="600" fill="#1B2333">image_inventory</text>
<text x="890.0" y="315.0" text-anchor="middle" font-family="'IBM Plex Sans', ui-sans-serif, system-ui, -apple-system, 'Segoe UI', Arial, sans-serif" font-size="12.5" fill="#5B6472">One row per accepted image, incl.</text>
<text x="890.0" y="331.0" text-anchor="middle" font-family="'IBM Plex Sans', ui-sans-serif, system-ui, -apple-system, 'Segoe UI', Arial, sans-serif" font-size="12.5" fill="#5B6472">label columns</text>
<rect x="756" y="371.0" width="268" height="118" rx="10" fill="#FFFFFF" stroke="#E4E1D9" stroke-width="1"/>
<g transform="translate(878.0,385.0) scale(1.0)" fill="none" stroke="#5B7186" stroke-width="1.8" stroke-linecap="round" stroke-linejoin="round"><rect x="3" y="4" width="18" height="16" rx="2"/><path d="M3 10 H21 M10 10 V20 M16 10 V20"/></g>
<text x="890.0" y="431.0" text-anchor="middle" font-family="'IBM Plex Mono', ui-monospace, 'SFMono-Regular', Consolas, 'Liberation Mono', monospace" font-size="15.5" font-weight="600" fill="#1B2333">leakage_groups</text>
<text x="890.0" y="451.0" text-anchor="middle" font-family="'IBM Plex Sans', ui-sans-serif, system-ui, -apple-system, 'Segoe UI', Arial, sans-serif" font-size="12.5" fill="#5B6472">duplicate · lesion · patient ·</text>
<text x="890.0" y="467.0" text-anchor="middle" font-family="'IBM Plex Sans', ui-sans-serif, system-ui, -apple-system, 'Segoe UI', Arial, sans-serif" font-size="12.5" fill="#5B6472">singleton</text>
<rect x="756" y="507.0" width="268" height="118" rx="10" fill="#FFFFFF" stroke="#E4E1D9" stroke-width="1"/>
<g transform="translate(878.0,521.0) scale(1.0)" fill="none" stroke="#5B7186" stroke-width="1.8" stroke-linecap="round" stroke-linejoin="round"><rect x="3" y="4" width="18" height="16" rx="2"/><path d="M3 10 H21 M10 10 V20 M16 10 V20"/></g>
<text x="890.0" y="567.0" text-anchor="middle" font-family="'IBM Plex Mono', ui-monospace, 'SFMono-Regular', Consolas, 'Liberation Mono', monospace" font-size="15.5" font-weight="600" fill="#1B2333">rejected_records</text>
<text x="890.0" y="587.0" text-anchor="middle" font-family="'IBM Plex Sans', ui-sans-serif, system-ui, -apple-system, 'Segoe UI', Arial, sans-serif" font-size="12.5" fill="#5B6472">Failed validations, with reason</text>
<text x="890.0" y="706" text-anchor="middle" font-family="'IBM Plex Sans', ui-sans-serif, system-ui, -apple-system, 'Segoe UI', Arial, sans-serif" font-size="12.5" font-weight="600" letter-spacing="0.2" fill="#5B7186">Trusted, validated data · canonical records</text>
<rect x="1130" y="118" width="300" height="610" rx="18" fill="rgba(166,130,46,0.07)" stroke="rgba(166,130,46,0.28)" stroke-width="1.5"/>
<rect x="1130" y="118" width="300" height="52" rx="14" fill="#A6822E"/><rect x="1130" y="144" width="300" height="26" fill="#A6822E"/><text x="1280.0" y="151" text-anchor="middle" font-family="'IBM Plex Sans', ui-sans-serif, system-ui, -apple-system, 'Segoe UI', Arial, sans-serif" font-size="19" font-weight="600" fill="#FFFFFF">Unity Catalog · Gold</text>
<rect x="1146" y="235.0" width="268" height="118" rx="10" fill="#FFFFFF" stroke="#E4E1D9" stroke-width="1"/>
<g transform="translate(1268.0,249.0) scale(1.0)" fill="none" stroke="#A6822E" stroke-width="1.8" stroke-linecap="round" stroke-linejoin="round"><rect x="3" y="4" width="18" height="16" rx="2"/><path d="M3 10 H21 M10 10 V20 M16 10 V20"/></g>
<text x="1280.0" y="295.0" text-anchor="middle" font-family="'IBM Plex Mono', ui-monospace, 'SFMono-Regular', Consolas, 'Liberation Mono', monospace" font-size="11.5" font-weight="600" fill="#1B2333">classification_manifest</text>
<text x="1280.0" y="315.0" text-anchor="middle" font-family="'IBM Plex Sans', ui-sans-serif, system-ui, -apple-system, 'Segoe UI', Arial, sans-serif" font-size="12.5" fill="#5B6472">Parquet — training-ready rows</text>
<rect x="1146" y="371.0" width="268" height="118" rx="10" fill="#FFFFFF" stroke="#E4E1D9" stroke-width="1"/>
<g transform="translate(1268.0,385.0) scale(1.0)" fill="none" stroke="#A6822E" stroke-width="1.8" stroke-linecap="round" stroke-linejoin="round"><rect x="5" y="2" width="14" height="20" rx="2"/><path d="M8 8 H16 M8 12 H16 M8 16 H13"/></g>
<text x="1280.0" y="431.0" text-anchor="middle" font-family="'IBM Plex Mono', ui-monospace, 'SFMono-Regular', Consolas, 'Liberation Mono', monospace" font-size="13.5" font-weight="600" fill="#1B2333">preprocessing.yaml</text>
<text x="1280.0" y="451.0" text-anchor="middle" font-family="'IBM Plex Sans', ui-sans-serif, system-ui, -apple-system, 'Segoe UI', Arial, sans-serif" font-size="12.5" fill="#5B6472">Versioned preprocessing config</text>
<rect x="1146" y="507.0" width="268" height="118" rx="10" fill="#FFFFFF" stroke="#E4E1D9" stroke-width="1"/>
<g transform="translate(1268.0,521.0) scale(1.0)" fill="none" stroke="#A6822E" stroke-width="1.8" stroke-linecap="round" stroke-linejoin="round"><rect x="4" y="3" width="16" height="18" rx="1.5"/><path d="M9 3 V21"/></g>
<text x="1280.0" y="567.0" text-anchor="middle" font-family="'IBM Plex Mono', ui-monospace, 'SFMono-Regular', Consolas, 'Liberation Mono', monospace" font-size="15.5" font-weight="600" fill="#1B2333">dataset_card.md</text>
<text x="1280.0" y="587.0" text-anchor="middle" font-family="'IBM Plex Sans', ui-sans-serif, system-ui, -apple-system, 'Segoe UI', Arial, sans-serif" font-size="12.5" fill="#5B6472">Data &amp; lineage documentation</text>
<text x="1280.0" y="706" text-anchor="middle" font-family="'IBM Plex Sans', ui-sans-serif, system-ui, -apple-system, 'Segoe UI', Arial, sans-serif" font-size="12.5" font-weight="600" letter-spacing="0.2" fill="#A6822E">Published data product · training-ready</text>
<rect x="1520" y="118" width="300" height="610" rx="18" fill="rgba(63,122,104,0.07)" stroke="rgba(63,122,104,0.28)" stroke-width="1.5"/>
<rect x="1520" y="118" width="300" height="52" rx="14" fill="#3F7A68"/><rect x="1520" y="144" width="300" height="26" fill="#3F7A68"/><text x="1670.0" y="151" text-anchor="middle" font-family="'IBM Plex Sans', ui-sans-serif, system-ui, -apple-system, 'Segoe UI', Arial, sans-serif" font-size="19" font-weight="600" fill="#FFFFFF">Training &amp; MLflow</text>
<rect x="1536" y="326.0" width="268" height="118" rx="10" fill="#FFFFFF" stroke="#E4E1D9" stroke-width="1"/>
<g transform="translate(1658.0,340.0) scale(1.0)" fill="none" stroke="#3F7A68" stroke-width="1.8" stroke-linecap="round" stroke-linejoin="round"><circle cx="12" cy="6" r="2.1"/><circle cx="6" cy="18" r="2.1"/><circle cx="18" cy="18" r="2.1"/><path d="M10.5 7.6 L7.3 16.4 M13.5 7.6 L16.7 16.4 M8.1 18 H15.9"/></g>
<text x="1670.0" y="386.0" text-anchor="middle" font-family="'IBM Plex Sans', ui-sans-serif, system-ui, -apple-system, 'Segoe UI', Arial, sans-serif" font-size="16.5" font-weight="600" fill="#1B2333">Classifier Training</text>
<text x="1670.0" y="406.0" text-anchor="middle" font-family="'IBM Plex Sans', ui-sans-serif, system-ui, -apple-system, 'Segoe UI', Arial, sans-serif" font-size="12.5" fill="#5B6472">Models consume the Gold manifest</text>
<text x="1670.0" y="422.0" text-anchor="middle" font-family="'IBM Plex Sans', ui-sans-serif, system-ui, -apple-system, 'Segoe UI', Arial, sans-serif" font-size="12.5" fill="#5B6472">for reproducible training</text>
<rect x="1536" y="462.0" width="268" height="118" rx="10" fill="#FFFFFF" stroke="#E4E1D9" stroke-width="1"/>
<g transform="translate(1658.0,476.0) scale(1.0)" fill="none" stroke="#3F7A68" stroke-width="1.8" stroke-linecap="round" stroke-linejoin="round"><rect x="3" y="4" width="18" height="13" rx="2"/><path d="M9 21 H15 M12 17 V21"/><path d="M7.5 14 V11 M12 14 V9 M16.5 14 V12"/></g>
<text x="1670.0" y="522.0" text-anchor="middle" font-family="'IBM Plex Sans', ui-sans-serif, system-ui, -apple-system, 'Segoe UI', Arial, sans-serif" font-size="16.5" font-weight="600" fill="#1B2333">MLflow Tracking</text>
<text x="1670.0" y="542.0" text-anchor="middle" font-family="'IBM Plex Sans', ui-sans-serif, system-ui, -apple-system, 'Segoe UI', Arial, sans-serif" font-size="12.5" fill="#5B6472">Track metrics, parameters, and</text>
<text x="1670.0" y="558.0" text-anchor="middle" font-family="'IBM Plex Sans', ui-sans-serif, system-ui, -apple-system, 'Segoe UI', Arial, sans-serif" font-size="12.5" fill="#5B6472">store model artifacts</text>
<line x1="268" y1="423.0" x2="332" y2="423.0" stroke="#8B93A3" stroke-width="2" marker-end="url(#arrowHead)"/>
<text x="305.0" y="409.0" text-anchor="middle" font-family="'IBM Plex Sans', ui-sans-serif, system-ui, -apple-system, 'Segoe UI', Arial, sans-serif" font-size="12.5" font-weight="600" fill="#1B2333">Ingest</text>
<text x="305.0" y="443.0" text-anchor="middle" font-family="'IBM Plex Mono', ui-monospace, 'SFMono-Regular', Consolas, 'Liberation Mono', monospace" font-size="10.5" fill="#5B6472">Databricks</text>
<line x1="658" y1="423.0" x2="722" y2="423.0" stroke="#8B93A3" stroke-width="2" marker-end="url(#arrowHead)"/>
<text x="695.0" y="409.0" text-anchor="middle" font-family="'IBM Plex Sans', ui-sans-serif, system-ui, -apple-system, 'Segoe UI', Arial, sans-serif" font-size="12.5" font-weight="600" fill="#1B2333">Normalize</text>
<text x="695.0" y="393.0" text-anchor="middle" font-family="'IBM Plex Sans', ui-sans-serif, system-ui, -apple-system, 'Segoe UI', Arial, sans-serif" font-size="12.5" font-weight="600" fill="#1B2333">Validate &amp;</text>
<text x="695.0" y="443.0" text-anchor="middle" font-family="'IBM Plex Mono', ui-monospace, 'SFMono-Regular', Consolas, 'Liberation Mono', monospace" font-size="10.5" fill="#5B6472">Databricks</text>
<line x1="1048" y1="423.0" x2="1112" y2="423.0" stroke="#8B93A3" stroke-width="2" marker-end="url(#arrowHead)"/>
<text x="1085.0" y="409.0" text-anchor="middle" font-family="'IBM Plex Sans', ui-sans-serif, system-ui, -apple-system, 'Segoe UI', Arial, sans-serif" font-size="12.5" font-weight="600" fill="#1B2333">Publish</text>
<text x="1085.0" y="443.0" text-anchor="middle" font-family="'IBM Plex Mono', ui-monospace, 'SFMono-Regular', Consolas, 'Liberation Mono', monospace" font-size="10.5" fill="#5B6472">Databricks</text>
<line x1="1438" y1="423.0" x2="1502" y2="423.0" stroke="#8B93A3" stroke-width="2" marker-end="url(#arrowHead)"/>
<text x="1475.0" y="409.0" text-anchor="middle" font-family="'IBM Plex Sans', ui-sans-serif, system-ui, -apple-system, 'Segoe UI', Arial, sans-serif" font-size="12.5" font-weight="600" fill="#1B2333">Train</text>
<text x="1475.0" y="443.0" text-anchor="middle" font-family="'IBM Plex Mono', ui-monospace, 'SFMono-Regular', Consolas, 'Liberation Mono', monospace" font-size="10.5" fill="#5B6472">Databricks</text>
<rect x="40" y="774" width="1780" height="118" rx="16" fill="#FFFFFF" stroke="#E4E1D9" stroke-width="1.2"/>
<g transform="translate(66.0,798) scale(1.0833333333333333)" fill="none" stroke="#3E4C6B" stroke-width="1.8" stroke-linecap="round" stroke-linejoin="round"><path d="M12 3 L19.5 6 V12 C19.5 16.5 16.2 19.6 12 21 C7.8 19.6 4.5 16.5 4.5 12 V6 Z"/><path d="M8.7 12 L10.8 14.2 L15.3 9.5"/></g>
<text x="106.0" y="814" font-family="'IBM Plex Sans', ui-sans-serif, system-ui, -apple-system, 'Segoe UI', Arial, sans-serif" font-size="15.5" font-weight="700" fill="#1B2333">Data Lineage</text>
<text x="106.0" y="836" font-family="'IBM Plex Sans', ui-sans-serif, system-ui, -apple-system, 'Segoe UI', Arial, sans-serif" font-size="12.5" fill="#5B6472">Every Gold release is traceable to source</text>
<text x="106.0" y="852" font-family="'IBM Plex Sans', ui-sans-serif, system-ui, -apple-system, 'Segoe UI', Arial, sans-serif" font-size="12.5" fill="#5B6472">files, checksums, configs, and pipeline runs.</text>
<line x1="485.0" y1="796" x2="485.0" y2="870" stroke="#E4E1D9" stroke-width="1"/>
<g transform="translate(511.0,798) scale(1.0833333333333333)" fill="none" stroke="#3E4C6B" stroke-width="1.8" stroke-linecap="round" stroke-linejoin="round"><rect x="5.5" y="11" width="13" height="10" rx="2"/><path d="M8.2 11 V7.7 a3.8 3.8 0 0 1 7.6 0 V11"/></g>
<text x="551.0" y="814" font-family="'IBM Plex Sans', ui-sans-serif, system-ui, -apple-system, 'Segoe UI', Arial, sans-serif" font-size="15.5" font-weight="700" fill="#1B2333">Reproducibility</text>
<text x="551.0" y="836" font-family="'IBM Plex Sans', ui-sans-serif, system-ui, -apple-system, 'Segoe UI', Arial, sans-serif" font-size="12.5" fill="#5B6472">Versioned configs, deterministic splits, and</text>
<text x="551.0" y="852" font-family="'IBM Plex Sans', ui-sans-serif, system-ui, -apple-system, 'Segoe UI', Arial, sans-serif" font-size="12.5" fill="#5B6472">immutable Bronze guarantee reproducible</text>
<text x="551.0" y="868" font-family="'IBM Plex Sans', ui-sans-serif, system-ui, -apple-system, 'Segoe UI', Arial, sans-serif" font-size="12.5" fill="#5B6472">results.</text>
<line x1="930.0" y1="796" x2="930.0" y2="870" stroke="#E4E1D9" stroke-width="1"/>
<g transform="translate(956.0,798) scale(1.0833333333333333)" fill="none" stroke="#3E4C6B" stroke-width="1.8" stroke-linecap="round" stroke-linejoin="round"><path d="M12 2.5 V21 M6 21 H18"/><path d="M4.5 6.5 H12"/><path d="M2.3 12 A2.7 2.7 0 0 0 6.7 12 L4.5 6.5 Z"/><path d="M19.5 6.5 H12"/><path d="M17.3 12 A2.7 2.7 0 0 0 21.7 12 L19.5 6.5 Z"/></g>
<text x="996.0" y="814" font-family="'IBM Plex Sans', ui-sans-serif, system-ui, -apple-system, 'Segoe UI', Arial, sans-serif" font-size="15.5" font-weight="700" fill="#1B2333">Quality &amp; Governance</text>
<text x="996.0" y="836" font-family="'IBM Plex Sans', ui-sans-serif, system-ui, -apple-system, 'Segoe UI', Arial, sans-serif" font-size="12.5" fill="#5B6472">Validation rules, rejected records, and</text>
<text x="996.0" y="852" font-family="'IBM Plex Sans', ui-sans-serif, system-ui, -apple-system, 'Segoe UI', Arial, sans-serif" font-size="12.5" fill="#5B6472">leakage control ensure trusted training data.</text>
<line x1="1375.0" y1="796" x2="1375.0" y2="870" stroke="#E4E1D9" stroke-width="1"/>
<g transform="translate(1401.0,798) scale(1.0833333333333333)" fill="none" stroke="#3E4C6B" stroke-width="1.8" stroke-linecap="round" stroke-linejoin="round"><path d="M5 11 A7 7 0 0 1 18.3 7.2" marker-end="url(#arrowSmall)"/><path d="M19 13 A7 7 0 0 1 5.7 16.8" marker-end="url(#arrowSmall)"/></g>
<text x="1441.0" y="814" font-family="'IBM Plex Sans', ui-sans-serif, system-ui, -apple-system, 'Segoe UI', Arial, sans-serif" font-size="15.5" font-weight="700" fill="#1B2333">Modular &amp; Extensible</text>
<text x="1441.0" y="836" font-family="'IBM Plex Sans', ui-sans-serif, system-ui, -apple-system, 'Segoe UI', Arial, sans-serif" font-size="12.5" fill="#5B6472">New sources and datasets can contribute to</text>
<text x="1441.0" y="852" font-family="'IBM Plex Sans', ui-sans-serif, system-ui, -apple-system, 'Segoe UI', Arial, sans-serif" font-size="12.5" fill="#5B6472">future Gold releases.</text>
</svg>